<svg width="316" height="54" viewBox="0 0 316 54" fill="none" xmlns="http://www.w3.org/2000/svg">
<path d="M280.436 34.0561H305.42L306.932 38.4481H278.276L280.436 34.0561ZM310.1 52.7761L292.676 6.84008L275.108 52.7761H269.78L289.868 1.08008H295.772L315.788 52.7761H310.1Z" fill="#081010"/>
<path d="M234.279 52.7761H228.879V1.08008H247.311C252.831 1.08008 257.175 2.44808 260.343 5.18408C263.511 7.87208 265.095 11.7121 265.095 16.7041C265.095 20.5921 263.895 23.9041 261.495 26.6401C259.143 29.3281 255.927 31.0081 251.847 31.6801L266.463 52.7761H259.983L246.087 32.3281H234.279V52.7761ZM234.279 5.61608V27.7921H246.879C250.815 27.7921 253.935 26.8561 256.239 24.9841C258.543 23.0641 259.695 20.3041 259.695 16.7041C259.695 13.1041 258.543 10.3681 256.239 8.49608C253.935 6.57608 250.815 5.61608 246.879 5.61608H234.279Z" fill="#081010"/>
<path d="M217.387 1.08008V35.0641C217.387 38.9041 216.595 42.2401 215.011 45.0721C213.475 47.9041 211.291 50.0881 208.459 51.6241C205.627 53.1121 202.315 53.8561 198.523 53.8561C194.683 53.8561 191.347 53.1121 188.515 51.6241C185.683 50.0881 183.475 47.9041 181.891 45.0721C180.355 42.2401 179.587 38.9041 179.587 35.0641V1.08008H184.987V35.3521C184.987 38.1361 185.563 40.5601 186.715 42.6241C187.867 44.6881 189.451 46.2721 191.467 47.3761C193.483 48.4801 195.835 49.0321 198.523 49.0321C201.211 49.0321 203.563 48.4801 205.579 47.3761C207.595 46.2721 209.155 44.6881 210.259 42.6241C211.411 40.5601 211.987 38.1361 211.987 35.3521V1.08008H217.387Z" fill="#081010"/>
<path d="M135.902 52.7761L122.366 18.4321V52.7761H112.43V1.08008H125.534L140.51 39.3841L155.558 1.08008H168.662V52.7761H158.726V18.1441L145.046 52.7761H135.902Z" fill="#081010"/>
<path d="M78.3141 53.856C74.5701 53.856 71.0901 53.184 67.8741 51.84C64.7061 50.496 61.9221 48.624 59.5221 46.224C57.1221 43.776 55.2501 40.92 53.9061 37.656C52.5621 34.344 51.8901 30.744 51.8901 26.856C51.8901 22.968 52.5621 19.392 53.9061 16.128C55.2501 12.864 57.1221 10.032 59.5221 7.632C61.9221 5.232 64.7061 3.36 67.8741 2.016C71.0901 0.672001 74.5701 0 78.3141 0C82.0581 0 85.5381 0.672001 88.7541 2.016C91.9701 3.36 94.7781 5.232 97.1781 7.632C99.6261 10.032 101.522 12.864 102.866 16.128C104.21 19.392 104.882 22.968 104.882 26.856C104.882 30.744 104.21 34.344 102.866 37.656C101.522 40.92 99.6261 43.776 97.1781 46.224C94.7781 48.624 91.9701 50.496 88.7541 51.84C85.5381 53.184 82.0581 53.856 78.3141 53.856ZM78.3141 44.064C80.6661 44.064 82.7781 43.632 84.6501 42.768C86.5701 41.856 88.1781 40.608 89.4741 39.024C90.8181 37.44 91.8261 35.616 92.4981 33.552C93.2181 31.44 93.5781 29.208 93.5781 26.856C93.5781 24.504 93.2181 22.296 92.4981 20.232C91.8261 18.168 90.8181 16.368 89.4741 14.832C88.1781 13.248 86.5701 12.024 84.6501 11.16C82.7781 10.248 80.6661 9.792 78.3141 9.792C75.9621 9.792 73.8501 10.248 71.9781 11.16C70.1061 12.024 68.4981 13.248 67.1541 14.832C65.8581 16.368 64.8501 18.168 64.1301 20.232C63.4581 22.296 63.1221 24.504 63.1221 26.856C63.1221 29.208 63.4581 31.44 64.1301 33.552C64.8501 35.616 65.8581 37.44 67.1541 39.024C68.4981 40.608 70.1061 41.856 71.9781 42.768C73.8501 43.632 75.9621 44.064 78.3141 44.064Z" fill="#081010"/>
<path d="M10.944 52.7761H0V1.08008H10.944V21.4561H33.336V1.08008H44.28V52.7761H33.336V30.8881H10.944V52.7761Z" fill="#081010"/>
</svg>
